<?xml version="1.0" standalone="no"?><!DOCTYPE svg PUBLIC "-//W3C//DTD SVG 1.1//EN" "http://www.w3.org/Graphics/SVG/1.1/DTD/svg11.dtd"><svg t="1747830616609" class="icon" viewBox="0 0 1761 1024" version="1.1" xmlns="http://www.w3.org/2000/svg" p-id="4986" xmlns:xlink="http://www.w3.org/1999/xlink" width="55.03125" height="32"><path d="M1690.54208 347.21792H81.92c-28.2624 0-51.2 22.9376-51.2 51.2v565.98528c0 28.2624 22.9376 51.2 51.2 51.2h641.6384l5.44768-0.28672c14.336-1.51552 27.4432-9.0112 36.00384-20.80768l123.45344-170.14784 2.94912 0.04096 118.08768 169.28768a51.2 51.2 0 0 0 41.984 21.9136h639.05792c28.2624 0 51.2-22.9376 51.2-51.2V398.41792c0-28.2624-22.9376-51.2-51.2-51.2z m-51.24096 102.4v463.58528H1078.19008l-118.00576-169.24672a51.2 51.2 0 0 0-41.94304-21.9136l-55.74656-0.08192-5.44768 0.28672a51.2 51.2 0 0 0-36.0448 20.84864l-123.53536 170.10688H133.12V449.61792h1506.18112zM579.3792 11.4688a51.2 51.2 0 0 1 73.03168 41.3696l0.2048 4.83328V263.3728a51.2 51.2 0 0 1-102.11328 5.24288l-0.28672-5.24288V138.81344l-365.3632 174.4896a51.2 51.2 0 0 1-65.78176-19.57888l-2.49856-4.58752a51.2 51.2 0 0 1 19.53792-65.78176l4.58752-2.4576L579.3792 11.4688zM1119.8464 57.67168c0-36.0448 35.88096-60.25216 68.77184-48.08704l4.46464 1.88416 438.6816 209.38752a51.2 51.2 0 0 1-39.3216 94.45376l-4.79232-2.048-365.44512-174.44864V263.3728a51.2 51.2 0 0 1-45.95712 50.91328l-5.24288 0.28672a51.2 51.2 0 0 1-50.91328-45.95712l-0.28672-5.24288V57.67168z" fill="#5AC2EE" p-id="4987"></path><path d="M680.50944 508.55936H210.28864v337.75616h470.2208v-337.75616z m-102.44096 102.35904v132.99712H312.68864v-132.99712h265.37984zM1562.09152 508.55936H1091.91168v337.75616h470.2208v-337.75616z m-102.4 102.35904v132.99712h-265.37984v-132.99712h265.37984z" fill="#5AC2EE" p-id="4988"></path></svg>